<svg width="197" height="202" viewBox="0 0 197 202" fill="none" xmlns="http://www.w3.org/2000/svg">
<g clip-path="url(#clip0_1623_236668)">
<path d="M105.7 39.1001C105.84 38.8301 105.98 38.5601 106.2 38.3401L126.63 17.9101C121.46 9.53013 113.41 3.59013 103.84 1.17013C94.0796 -1.29987 83.9396 0.170132 75.2896 5.33013C66.6396 10.4801 60.5196 18.7001 58.0496 28.4601C56.3496 35.1601 56.5596 42.0401 58.4996 48.4901C70.2696 42.2401 83.5996 38.6701 97.6496 38.6701C100.34 38.6701 103.02 38.8401 105.69 39.1001H105.7Z" fill="#C69B59"/>
<path d="M145.659 50.0006C161.029 55.0206 173.979 64.3306 183.529 76.2106L184.999 74.7406C199.689 60.0406 199.689 36.1306 184.999 21.4406C171.169 7.6206 149.189 6.8006 134.399 19.0006C133.469 19.7706 132.569 20.5706 131.699 21.4406L129.869 23.2706L112.989 40.1506C116.609 40.8306 120.209 41.6906 123.749 42.8406L145.659 50.0006Z" fill="#C69B59"/>
<path d="M7.93 108.57C12.3096 108.57 15.86 105.02 15.86 100.64C15.86 96.2603 12.3096 92.71 7.93 92.71C3.55038 92.71 0 96.2603 0 100.64C0 105.02 3.55038 108.57 7.93 108.57Z" fill="#1A2031"/>
<path d="M74.5 108.57C79.0784 108.57 82.79 104.859 82.79 100.28C82.79 95.7018 79.0784 91.9902 74.5 91.9902C69.9215 91.9902 66.21 95.7018 66.21 100.28C66.21 104.859 69.9215 108.57 74.5 108.57Z" fill="#1A2031"/>
<path d="M52.6403 119.4C50.9603 119.4 49.6003 120.76 49.6003 122.44C49.6003 125.4 47.1903 127.81 44.2303 127.81C41.2703 127.81 38.8603 125.4 38.8603 122.44C38.8603 120.76 37.5003 119.4 35.8203 119.4C34.1403 119.4 32.7803 120.76 32.7803 122.44C32.7803 128.75 37.9103 133.88 44.2203 133.88C50.5303 133.88 55.6703 128.75 55.6703 122.44C55.6703 120.76 54.3103 119.4 52.6303 119.4H52.6403Z" fill="#1A2031"/>
<path d="M188.1 159.38C190.82 153.7 192.88 147.6 194.11 141.17C201.16 104.25 179.53 67.6002 143.8 55.9302L121.89 48.7702C100.64 41.8302 77.4198 44.3702 58.1698 55.7302C38.9198 67.0902 25.4798 86.2002 21.2798 108.15C17.0898 130.1 22.5398 152.82 36.2498 170.48C49.9498 188.13 70.6098 199.05 92.9198 200.43L115.93 201.86C117.48 201.96 119.03 202.01 120.57 202.01C139.81 202.01 157.71 194.54 171.21 182.14L189.83 188.39C193.01 189.46 196.07 186.51 195.13 183.29L188.12 159.38H188.1ZM41.0398 166.76C28.3998 150.48 23.3798 129.54 27.2398 109.3C31.1098 89.0602 43.4998 71.4402 61.2498 60.9702C75.5798 52.5202 92.2998 49.3702 108.52 51.8402C125.08 103.09 115.99 155.32 90.1798 194.11C70.8098 192.06 53.0398 182.22 41.0398 166.77V166.76ZM117.18 195.82C139.2 156.69 147.08 108.17 135.65 59.6702L141.91 61.7102C144.01 62.4002 146.05 63.1802 148.04 64.0502C157.31 110.4 150.07 156.59 130.19 195.22C125.94 195.82 121.59 196.04 117.18 195.82ZM162.39 181.68C173.41 151.8 178.11 119.08 175.42 85.7502C186.76 100.82 191.9 120.37 188.14 140.03C184.87 157.14 175.4 171.7 162.39 181.67V181.68Z" fill="#1A2031"/>
</g>
<defs>
<clipPath id="clip0_1623_236668">
<rect width="196.02" height="202.01" fill="white"/>
</clipPath>
</defs>
</svg>
