<?xml version="1.0" encoding="UTF-8"?>
<svg id="_圖層_1" data-name="圖層 1" xmlns="http://www.w3.org/2000/svg" viewBox="0 0 3637.73 878.74">
  <defs>
    <style>
      .cls-1 {
        fill: #fff;
      }

      .cls-2 {
        fill: #e72410;
      }

      .cls-3 {
        fill: #ffffff;
      }
    </style>
  </defs>
  <g>
    <path class="cls-3" d="M998.64,793.79c0,23.89-7.96,41.52-23.89,52.92-15.91,11.41-38.08,17.1-66.43,17.1-16.23,0-29.91-.94-41.05-2.83-11.15-1.89-20.38-4.29-27.63-7.18v-38.66c5.69,3.5,14.6,6.71,26.73,9.63,12.15,2.94,24.09,4.42,35.85,4.42,16.5,0,27.89-2.21,34.1-6.61,6.22-4.41,9.34-11.72,9.34-21.92,0-6.58-2.24-12.39-6.72-17.47-4.48-5.08-17.21-11.79-38.21-20.15-16.72-6.79-29.67-15.41-38.83-25.9-9.16-10.51-13.74-24.81-13.74-42.93s7.4-31.95,22.17-43.9c14.79-11.94,35.23-17.91,61.3-17.91,12.63,0,24.01,1.03,34.11,3.07,10.1,2.03,17.18,3.84,21.27,5.45v34.34c-8.56-2.08-17.07-3.92-25.52-5.54-8.46-1.58-17.47-2.37-27.03-2.37-13.53,0-23.28,2.08-29.25,6.27-5.97,4.17-8.96,9.39-8.96,15.67,0,7.95,2.22,13.99,6.7,18.06,4.48,4.1,17.63,10.1,39.42,18.07,20.31,7.38,34.77,16.7,43.37,27.99,8.61,11.31,12.91,24.78,12.91,40.4Z"/>
    <path class="cls-3" d="M1078.67,650.76c0,7.15-2.43,13.18-7.32,18.06-4.86,4.88-10.8,7.32-17.76,7.32s-12.77-2.45-17.69-7.32c-4.92-4.88-7.38-10.91-7.38-18.06s2.46-12.9,7.38-17.79c4.92-4.87,10.83-7.31,17.69-7.31s12.9,2.45,17.76,7.31c4.89,4.88,7.32,10.8,7.32,17.79ZM1077.32,860.82h-47.61v-171.84h47.61v171.84Z"/>
    <path class="cls-3" d="M1270.54,860.82h-47.65v-120.48c0-4.49-1.91-8.67-5.73-12.55-3.84-3.87-9.34-5.81-16.5-5.81s-12.93,1.43-18.14,4.32c-5.23,2.89-9.69,6.57-13.37,11.05v123.47h-47.63v-171.84h45.85l.89,27.48c3.46-8.16,10.17-15.37,20.04-21.57,9.89-6.23,21.95-9.34,36.16-9.34s25.55,4.51,33.77,13.5c8.2,9.01,12.31,22.77,12.31,41.29v120.48Z"/>
    <path class="cls-3" d="M1480.31,780.04c0,26.59-7.66,47.31-22.93,62.19-15.26,14.89-36.24,22.34-62.93,22.34s-47.53-7.63-63.15-22.85c-15.63-15.23-23.44-35.78-23.44-61.67v-10.89c0-25.28,7.7-45.68,23.14-61.22,15.42-15.53,36.48-23.28,63.15-23.28s47.96,7.81,63.23,23.44c15.28,15.62,22.93,35.97,22.93,61.05v10.89ZM1431.18,775.88v-2.54c0-23.2-3.57-39.02-10.74-47.49-7.18-8.45-15.93-12.69-26.29-12.69s-19.68,4.52-26.51,13.58c-6.81,9.07-10.23,24.59-10.23,46.6v2.54c0,24.17,3.32,40.24,9.94,48.22,6.61,7.96,15.55,11.94,26.79,11.94,10.15,0,18.85-3.88,26.12-11.66,7.28-7.75,10.9-23.92,10.9-48.5Z"/>
    <path class="cls-3" d="M1666.94,711.67c0,19.1-5.81,33.52-17.47,43.21-11.64,9.73-28.46,14.57-50.46,14.57h-30.62v91.37h-50.76v-225.3h84.51c24.19,0,41.02,5.84,50.54,17.55,9.51,11.7,14.26,25.3,14.26,40.83v17.78ZM1614.99,714.96v-21.67c0-8.54-2.4-14.86-7.18-18.96-4.76-4.07-12.64-6.12-23.58-6.12h-15.83v70.33h18.52c7.97,0,14.64-2.05,20.01-6.11,5.37-4.1,8.07-9.91,8.07-17.47Z"/>
    <path class="cls-3" d="M1837.9,860.82h-44.64l-.89-22.39c-3.68,7.18-9.86,13.05-18.52,17.63-8.67,4.57-18.77,6.85-30.3,6.85-19.03,0-33.42-4.76-43.17-14.32-9.75-9.56-14.61-24.05-14.61-43.45v-2.99c0-19.22,6.51-34.02,19.55-44.42,13.04-10.4,30.56-15.61,52.55-15.61,6.67,0,13.25.98,19.71,2.92,6.46,1.94,11.2,4.35,14.18,7.24v-16.87c0-5.88-2.68-10.86-8.07-14.93-5.37-4.1-12.99-6.13-22.84-6.13-10.54,0-19.95,1.17-28.22,3.51-8.26,2.33-15.42,5.26-21.49,8.74v-29.41c7.85-3.19,16.64-5.93,26.33-8.21,9.72-2.29,21.49-3.43,35.32-3.43,22.2,0,38.59,4.99,49.2,14.99,10.59,10.01,15.9,26.01,15.9,48.01v112.27ZM1792.06,803.33v-4.61c0-10.36-2.45-18.23-7.32-23.66-4.88-5.43-12.1-8.13-21.65-8.13-8.96,0-16.04,2.53-21.27,7.68-5.24,5.12-7.85,13.25-7.85,24.4v4.65c0,11.64,2.76,19.41,8.29,23.27,5.53,3.91,12.55,5.83,21.12,5.83,7.37,0,13.98-2.37,19.85-7.09,5.88-4.72,8.81-12.17,8.81-22.32Z"/>
  </g>
  <path class="cls-3" d="M2010.42,851.71c-1.89,1.61-7.53,4.14-16.87,7.62-9.37,3.49-19.12,5.24-29.27,5.24-27.78,0-49.87-7.19-66.29-21.59-16.42-14.37-24.63-35.95-24.63-64.72v-7.31c0-26.09,8.07-46.98,24.17-62.72,16.13-15.72,37.94-23.57,65.4-23.57,10.85,0,20.65,1.37,29.43,4.15,8.75,2.8,14.77,5.79,18.06,8.96v30.33c-4.27-3.9-9.97-7.13-17.09-9.78-7.12-2.62-14.87-3.96-23.22-3.96-14.55,0-25.67,5.21-33.38,15.59-7.7,10.43-11.56,24.69-11.56,42.79v3.15c0,20.3,3.15,34.69,9.4,43.13,6.27,8.47,16.38,12.71,30.3,12.71,9.37,0,18.47-1.43,27.33-4.26,8.86-2.84,14.93-5.71,18.22-8.58v32.84Z"/>
  <g>
    <path class="cls-3" d="M2272.84,793.79c0,23.89-7.96,41.52-23.9,52.92-15.91,11.41-38.05,17.1-66.43,17.1-16.22,0-29.91-.94-41.06-2.83-11.15-1.89-20.36-4.29-27.62-7.18v-38.66c5.67,3.5,14.58,6.71,26.73,9.63,12.13,2.94,24.08,4.42,35.83,4.42,16.52,0,27.89-2.21,34.12-6.61,6.22-4.41,9.34-11.72,9.34-21.92,0-6.58-2.24-12.39-6.73-17.47-4.48-5.08-17.22-11.79-38.21-20.15-16.72-6.79-29.67-15.41-38.81-25.9-9.16-10.51-13.75-24.81-13.75-42.93s7.4-31.95,22.17-43.9c14.8-11.94,35.22-17.91,61.3-17.91,12.64,0,24.01,1.03,34.11,3.07,10.1,2.03,17.19,3.84,21.28,5.45v34.34c-8.58-2.08-17.09-3.92-25.54-5.54-8.46-1.58-17.47-2.37-27.03-2.37-13.53,0-23.28,2.08-29.25,6.27-5.97,4.17-8.96,9.39-8.96,15.67,0,7.95,2.22,13.99,6.72,18.06,4.48,4.1,17.61,10.1,39.42,18.07,20.31,7.38,34.77,16.7,43.37,27.99,8.61,11.31,12.91,24.78,12.91,40.4Z"/>
    <path class="cls-3" d="M2462.3,784.08h-116.75c0,19.12,4.32,32.4,12.99,39.86,8.66,7.46,19.9,11.22,33.75,11.22,9.15,0,18.52-1.18,28.14-3.53,9.59-2.32,19.47-5.84,29.63-10.51v28.67c-8.77,4.88-18.46,8.56-29.05,11.04-10.59,2.49-22.82,3.75-36.64,3.75-26.49,0-47.58-7.05-63.3-21.12-15.74-14.1-23.6-34.67-23.6-61.75v-12.25c0-23.68,7.18-43.76,21.57-60.18,14.39-16.42,35.26-24.62,62.64-24.62s46.03,7.7,59.88,23.12c13.83,15.44,20.74,35.54,20.74,60.31v15.99ZM2417.96,759.59c-.98-16.91-4.7-29.03-11.12-36.35-6.42-7.32-14.8-10.98-25.16-10.98-9.05,0-17.14,3.62-24.27,10.83-7.12,7.2-10.96,19.38-11.56,36.5h72.1Z"/>
    <path class="cls-3" d="M2629.09,851.71c-1.89,1.61-7.53,4.14-16.88,7.62-9.36,3.49-19.11,5.24-29.27,5.24-27.76,0-49.87-7.19-66.29-21.59-16.42-14.37-24.62-35.95-24.62-64.72v-7.31c0-26.09,8.05-46.98,24.17-62.72,16.14-15.72,37.93-23.57,65.4-23.57,10.85,0,20.66,1.37,29.41,4.15,8.77,2.8,14.79,5.79,18.07,8.96v30.33c-4.29-3.9-9.99-7.13-17.11-9.78-7.12-2.62-14.85-3.96-23.2-3.96-14.55,0-25.67,5.21-33.38,15.59-7.72,10.43-11.56,24.69-11.56,42.79v3.15c0,20.3,3.13,34.69,9.4,43.13,6.26,8.47,16.36,12.71,30.3,12.71,9.36,0,18.46-1.43,27.32-4.26,8.86-2.84,14.95-5.71,18.23-8.58v32.84Z"/>
    <path class="cls-3" d="M2816.02,860.82h-45.71l-.89-26.87c-5.57,7.56-13.23,14.52-22.98,20.83-9.77,6.33-21.81,9.47-36.13,9.47-13.44,0-24.01-4.02-31.73-12.09-7.72-8.05-11.58-22.4-11.58-43v-120.19h47.63v115.85c0,8.97,1.89,14.98,5.69,18.07,3.78,3.1,8.4,4.63,13.88,4.63,6.96,0,13.37-1.26,19.25-3.8,5.88-2.54,10.86-6.49,14.95-11.85v-122.9h47.63v171.84Z"/>
    <path class="cls-3" d="M2989.2,741.23h-44.06c0-4.86-1.02-9.05-3.05-12.55-2.03-3.47-6.04-5.21-12.01-5.21s-10.45,1.53-14.34,4.62c-3.89,3.1-6.42,6.37-7.61,9.85v122.87h-47.64v-171.84h45.85l.89,27.17c4.48-9.75,10.28-17.3,17.39-22.63,7.13-5.31,15.5-7.97,25.16-7.97,14.44,0,25.22,4.75,32.34,14.25,7.12,9.5,9.47,23.32,7.08,41.43Z"/>
    <path class="cls-3" d="M3061.02,650.76c0,7.15-2.45,13.18-7.3,18.06-4.89,4.88-10.8,7.32-17.77,7.32s-12.77-2.45-17.69-7.32c-4.94-4.88-7.38-10.91-7.38-18.06s2.45-12.9,7.38-17.79c4.92-4.87,10.81-7.31,17.69-7.31s12.88,2.45,17.77,7.31c4.86,4.88,7.3,10.8,7.3,17.79ZM3059.68,860.82h-47.63v-171.84h47.63v171.84Z"/>
    <path class="cls-3" d="M3199.87,718.68h-45.39v88.11c0,8.96,1.49,15.52,4.48,19.69,2.98,4.19,8.75,6.27,17.33,6.27,4.07,0,8-.31,11.79-.96,3.78-.64,7.27-1.46,10.46-2.46v26.86c-5.08,2.09-11.32,3.65-18.76,4.63-7.4.99-14.71,1.49-21.85,1.49-15.74,0-28.17-5.05-37.34-15.15-9.16-10.1-13.74-24.6-13.74-43.52v-85.25h-20.46v-24.5l22.25-1.18,15.98-57.19h29.86v56.89h45.39v26.27Z"/>
    <path class="cls-3" d="M3279.01,650.76c0,7.15-2.45,13.18-7.32,18.06-4.88,4.88-10.8,7.32-17.77,7.32s-12.77-2.45-17.68-7.32c-4.94-4.88-7.4-10.91-7.4-18.06s2.46-12.9,7.4-17.79c4.91-4.87,10.81-7.31,17.68-7.31s12.9,2.45,17.77,7.31c4.88,4.88,7.32,10.8,7.32,17.79ZM3277.66,860.82h-47.63v-171.84h47.63v171.84Z"/>
    <path class="cls-3" d="M3479.52,784.08h-116.75c0,19.12,4.32,32.4,12.98,39.86,8.67,7.46,19.92,11.22,33.76,11.22,9.15,0,18.52-1.18,28.14-3.53,9.59-2.32,19.47-5.84,29.63-10.51v28.67c-8.77,4.88-18.46,8.56-29.06,11.04-10.58,2.49-22.81,3.75-36.65,3.75-26.46,0-47.57-7.05-63.29-21.12-15.72-14.1-23.6-34.67-23.6-61.75v-12.25c0-23.68,7.19-43.76,21.58-60.18,14.37-16.42,35.26-24.62,62.64-24.62s46.03,7.7,59.88,23.12c13.82,15.44,20.74,35.54,20.74,60.31v15.99ZM3435.18,759.59c-.98-16.91-4.7-29.03-11.12-36.35-6.42-7.32-14.8-10.98-25.16-10.98-9.05,0-17.15,3.62-24.27,10.83-7.12,7.2-10.97,19.38-11.56,36.5h72.1Z"/>
    <path class="cls-3" d="M3624.96,808.56c0,15.94-5.78,29.26-17.33,39.95-11.55,10.69-30.56,16.06-57.03,16.06-11.05,0-21.11-.93-30.16-2.76-9.05-1.84-15.63-4.12-19.71-6.8v-30.3c4.69,2.67,11.29,5.39,19.85,8.13,8.56,2.73,17.33,4.1,26.28,4.1,11.45,0,20.23-1.95,26.35-5.82,6.13-3.87,9.18-8.86,9.18-14.92s-2.03-10.66-6.12-14.35c-4.08-3.66-14.48-8.05-31.21-13.13-15.72-4.66-26.43-11.3-32.1-19.84-5.67-8.58-8.51-19.61-8.51-33.16s5.08-25.52,15.23-35.09c10.15-9.54,26.17-14.33,48.07-14.33,10.15,0,18.74.79,25.76,2.32,7.02,1.56,13.61,3.76,19.77,6.65v27.78c-4.48-2.6-10.85-4.76-19.11-6.51-8.26-1.73-16.17-2.6-23.74-2.6-8.75,0-15.85,1.49-21.27,4.51-5.43,3.02-8.15,7.08-8.15,12.21,0,5.87,2.1,9.98,6.27,12.32,4.18,2.35,13.53,5.65,28.08,9.94,18.5,5.46,31.4,12.63,38.66,21.5,7.27,8.85,10.91,20.25,10.91,34.17Z"/>
  </g>
  <path class="cls-3" d="M1862.51,230.14l-20.77-35.77c100.79-34.05,167.06-72.06,197.13-114.48l36.23,7.5-5.3,7.49c51.73,43.33,112.71,76.5,182.53,99.01l-22.09,35.36c-68.5-28.27-129.04-64.51-181.64-107.84-35.38,35.34-97.67,71.63-186.07,108.74M2029.13,332.65h-171.92v-37.55h171.92v-52.14h-101.2v-37.58h240.41v37.58h-102.07v52.14h171.03v37.55h-171.03v109.18h174.56v37.58h-387.14v-37.58h175.45v-109.18ZM1920.42,337.09c16.34,21.22,32.27,48.61,48.17,82.64l-33.59,18.13c-16.8-34.93-32.7-61.88-46.87-80.87l32.29-19.9ZM2202.83,358.75c-18.99,31.37-37.13,58.33-52.6,79.12l-28.71-23c18.55-24.75,36.23-51.25,50.82-77.77l30.49,21.66Z"/>
  <path class="cls-3" d="M2488.88,186.52h-131.71v-34.02h131.71v34.02ZM2396.53,474.69h-35.8v-131.7c0-7.08,3.97-11.04,11.48-11.04h98.99c7.97,0,11.94,3.96,11.94,11.04v107.41c0,8.36-3.97,12.4-12.39,12.4h-74.23v11.89ZM2475.19,126.01h-107.41v-34.04h107.41v34.04ZM2476.96,248.41h-109.17v-34.04h109.17v34.04ZM2476.96,308.97h-109.17v-34.04h109.17v34.04ZM2402.25,365.95c-3.97,0-5.72,1.79-5.72,5.76v57.02h43.31c4.86,0,7.51-2.64,7.51-7.5v-49.51c0-3.97-2.22-5.76-6.2-5.76h-38.91ZM2553.86,221.47c-12.83,9.27-26.97,18.11-41.99,25.63l-21.2-29.19,48.17-26.55-39.32-32.22,22.96-24.79,41.55,36.26c16.8-15.93,31.38-32.68,41.99-49.06h-76.47v-32.26h102.98c4.88,0,8.83,1.76,11.93,5.73l15.91,23.46c13.28-15.06,24.31-28.3,31.38-39.82l25.63,19.91c-9.28,14.15-21.22,29.19-36.69,45.55l12.82,15.02c16.36-18.61,29.18-34.48,38.01-47.76l26.08,19.9c-10.16,15.47-23.43,32.26-40.21,50.82,14.13,11.49,30.95,23,50.38,33.58l-25.62,26.49-28.75-19.86v22.54h-157.31v-25.19l-2.22,1.79ZM2762.02,445.96v34.02h-251.03v-34.02h66.28l-15.45-62.75h-28.73c-6.19,0-9.28-3.06-9.28-9.27v-96.78c0-6.2,3.08-9.33,9.28-9.33h200.22c6.62,0,9.7,3.13,9.7,9.33v96.78c0,6.21-3.08,9.27-9.7,9.27h-25.63l-7.51,30.96-8.85,31.79h70.71ZM2559.59,301.89l-1.32,1.34v44.18l1.32,1.76h147.62c.89,0,1.33-.43,1.33-1.76v-44.18l-1.33-1.34h-147.62ZM2700.16,210.85c-21.66-18.57-43.33-42.86-64.1-73.35-16.8,23.38-39.77,48.58-68.51,73.35h132.61ZM2671.42,383.21h-72.91l14.56,62.75h41.1l13.28-44.18,3.97-18.57Z"/>
  <path class="cls-3" d="M2964.54,356.24v-24.72c-18.14,17.66-39.32,34-63.66,48.15l-29.16-27.83c35.35-21.7,68.05-47.32,97.24-74.71h-89.72v-35.8h119.75c11.5-15.48,20.79-31.35,27.86-46.39v-.91h-132.14v-35.78h146.7c6.19-24.3,11.51-53.06,15.04-83.99l39.32,3.98c-2.65,20.33-8.83,47.72-17.25,80.01h55.71c20.33-31.41,35.77-58.8,45.07-80.89l33.59,17.66c-7.96,19.44-19.46,40.22-33.59,63.23h82.2v35.78h-128.17c8.83,17.68,18.12,33.13,26.97,47.3h116.67v35.8h-88.4c22.98,24.75,55.27,49.04,95.02,72.94l-30.49,28.71c-15.91-10.62-30.49-21.67-44.61-33.16l-1.33,69.84c-1.33,22.09-5.77,37.57-13.72,47.77-6.61,8.83-16.34,15.02-28.27,19-20.77,6.64-51.27,4.39-90.61-6.62v-44.2c15.9,6.59,29.62,11.03,41.12,13.26,18.99,3.1,34.89.45,45.95-9.29,4.88-5.3,7.96-13.71,8.85-25.2,1.76-29.6,1.76-46.38-.48-50.82-.86-2.23-2.64-3.1-4.83-3.1h-83.98c-3.97,13.27-10.16,25.64-17.66,37.57l-8.86,13.25c-31.37,40.25-85.29,65.43-159.96,75.16l-9.75-39.36,47.3-7.5c54.37-11.93,90.62-38.47,108.28-79.13h-76.01ZM2965.42,74.71c13.25,14.13,26.52,33.64,40.66,57.46l-31.83,20.33c-14.6-24.3-27.86-42.87-39.78-55.22l30.95-22.57ZM3181.55,320.43l-38.91-43.29h-126.39c-9.29,11.05-22.55,26.09-39.78,43.29h205.08ZM3094.04,194.04h-26.52l-25.21,47.3h76.46l-24.73-47.3Z"/>
  <path class="cls-2" d="M632.23,323.88c0,171.1-138.63,309.76-309.7,309.76S12.77,494.98,12.77,323.88,151.45,14.17,322.53,14.17s309.7,138.63,309.7,309.71"/>
  <rect class="cls-1" x="356.92" y="126.04" width="77.44" height="77.38"/>
  <polygon class="cls-1" points="81.59 341.1 81.59 409.9 150.44 409.9 150.44 478.75 219.24 478.75 219.24 341.1 81.59 341.1"/>
  <polygon class="cls-1" points="98.79 203.42 98.79 272.27 288.08 272.27 288.08 478.75 356.93 478.75 356.93 203.42 98.79 203.42"/>
  <polygon class="cls-1" points="425.72 272.27 425.72 478.75 494.6 478.75 494.6 341.08 580.62 341.08 580.62 272.27 425.72 272.27"/>
  <path class="cls-3" d="M1440.01,416.67h-59.56c-3.06,0-4.37-1.75-4.37-4.8v-69.25c0-3.06,1.3-4.36,4.37-4.36h317.62c3.08,0,4.81,1.3,4.81,4.36v69.25c0,3.06-1.73,4.8-4.81,4.8h-56.06l-11.85,28.91h108.65v33.73h-399.54v-33.73h113.02l-12.28-28.91ZM1733.54,325.12h-389.04v-30.22h389.04v30.22ZM1572.35,226.11v-27.17h38.53v-21.03h-38.53v-26.73h38.53v-22.79h-40.31v-27.16h40.31v-22.77h30.22v22.77h37.69v27.16h-37.69v22.79h35.96v26.73h-35.96v21.03h37.69v27.17h-37.69v20.61h47.76c3.95,0,5.73-1.36,5.73-5.29V83.69h33.72v178.77c0,9.62-4.83,14.9-14.93,14.9h-348.29c-9.64,0-14.47-5.27-14.47-14.9V83.69h33.73v157.75c0,3.93,1.79,5.29,5.26,5.29h46.5v-20.61h-38.59v-27.17h38.59v-22.76h-36.83v-26.73h36.83v-21.06h-38.59v-27.16h38.59v-22.77h30.62v22.77h34.18v27.16h-34.18v21.06h34.18v26.73h-34.18v22.76h35.93v27.17h-35.93v20.61h53.49V78.46h33.7v168.27h56.95v-20.61h-38.53ZM1411.51,367.17c-1.27,0-1.7.43-1.27,1.33v17.94l1.27,1.77h255.88l1.33-1.77v-17.94l-1.33-1.33h-255.88ZM1593.79,445.58l10.54-23.22,2.16-5.69h-130.12l11.39,28.91h106.03Z"/>
  <path class="cls-3" d="M991.01,246.49l11.05,14.6c-9.27,69.39-59.65,133.04-149.37,190.06l-28.73-32.72c33.61-16.8,59.67-33.61,77.79-49.49,15.03-13.28,29.16-29.17,42.42-48.19,9.7-14.58,14.6-24.3,15.9-30.05.89-2.23.89-3.08,0-4.41-1.76-1.34-4.83-2.22-9.28-2.22h-111.37v-37.59h151.58ZM1065.72,436.09c0,17.26-6.19,30.95-18.12,40.69-8.4,7.93-23.43,11.93-45.09,11.5-23.87-.48-46.84-4-69.83-10.16l-2.21-41.57c45.96,14.15,74.23,17.68,84.43,11.93,7.5-5.73,11.04-14.13,11.5-25.62v-213.91c0-3.97-2.22-6.19-6.64-6.19h-168.86v-37.58h202.46c8.36.48,12.8,4.88,12.36,13.28v17.22c18.57,55.25,38.89,98.57,59.65,129.07,25.63,36.68,63.21,73.81,112.71,111.36l-33.59,25.66c-59.22-48.62-105.62-104.75-138.78-167.07v141.41ZM905.28,83l110.05,11.46c51.27,5.76,96.36,12.36,136.12,21.22l-8.38,38c-74.25-16.78-156.03-28.27-243.09-32.24l5.3-38.43ZM1235.43,186.39c-21.66,27.4-52.6,56.57-91.07,87.06l-25.16-27.83c40.21-32.72,69.82-61.46,89.26-85.75l26.97,26.51Z"/>
</svg>